<svg id="play" xmlns="http://www.w3.org/2000/svg" width="502" height="502" viewBox="0 0 502 502">
  <g id="Groupe_1" data-name="Groupe 1">
    <path id="Tracé_4" data-name="Tracé 4" d="M251,502A251,251,0,0,1,73.517,73.516,251,251,0,1,1,428.483,428.484,249.351,249.351,0,0,1,251,502Zm0-482C123.626,20,20,123.626,20,251S123.626,482,251,482,482,378.374,482,251,378.374,20,251,20Z" fill="#fff"/>
  </g>
  <g id="Groupe_3" data-name="Groupe 3">
    <g id="Groupe_2" data-name="Groupe 2">
      <path id="Tracé_5" data-name="Tracé 5" d="M194.134,401a34.6,34.6,0,0,1-34.6-34.6V135.6a34.6,34.6,0,0,1,54.01-28.636l170.231,115.4a34.6,34.6,0,0,1,0,57.274L213.549,395.04A34.465,34.465,0,0,1,194.134,401Zm0-280a14.61,14.61,0,0,0-14.6,14.6V366.4a14.6,14.6,0,0,0,22.786,12.083l170.232-115.4a14.6,14.6,0,0,0,0-24.165l-170.231-115.4A14.577,14.577,0,0,0,194.138,121Z" fill="#fff"/>
    </g>
  </g>
  <g id="Groupe_4" data-name="Groupe 4">
    <path id="Tracé_6" data-name="Tracé 6" d="M286.012,63.038a10.033,10.033,0,0,1-1.741-.152,194.189,194.189,0,0,0-64.641-.324,10,10,0,0,1-3.26-19.732,214.229,214.229,0,0,1,71.359.358,10,10,0,0,1-1.717,19.85Z" fill="#fff"/>
  </g>
  <g id="Groupe_5" data-name="Groupe 5">
    <path id="Tracé_7" data-name="Tracé 7" d="M439.844,192a10.007,10.007,0,0,1-9.394-6.57A190.885,190.885,0,0,0,339.364,81.623,10,10,0,1,1,348.63,63.9,210.841,210.841,0,0,1,449.235,178.565,10.009,10.009,0,0,1,439.844,192Z" fill="#fff"/>
  </g>
</svg>
