<svg xmlns="http://www.w3.org/2000/svg" width="512" height="377.879" viewBox="0 0 512 377.879">
  <g id="speakers" transform="translate(0 -67.061)">
    <g id="Groupe_2" data-name="Groupe 2">
      <g id="Groupe_1" data-name="Groupe 1">
        <path id="Tracé_1" data-name="Tracé 1" d="M299.476,70.848a31.864,31.864,0,0,0-32.77,1.583L129.511,163.9H77.5A25.523,25.523,0,0,0,52.1,187.255H44.76A44.81,44.81,0,0,0,0,232.015v47.972a44.81,44.81,0,0,0,44.76,44.76H52.1A25.526,25.526,0,0,0,77.5,348.105h52.012l137.2,91.466a31.923,31.923,0,0,0,49.629-26.562V98.993A31.865,31.865,0,0,0,299.476,70.848ZM51.994,299.418H44.76a19.453,19.453,0,0,1-19.43-19.432V232.014a19.452,19.452,0,0,1,19.43-19.43h7.234Zm68.686,23.357H77.5a.174.174,0,0,1-.174-.174V189.4a.174.174,0,0,1,.174-.174H120.68ZM291.006,413.01a6.593,6.593,0,0,1-10.25,5.485L146.009,328.662V183.34L280.756,93.508a6.593,6.593,0,0,1,10.25,5.485Z" fill="#fff"/>
      </g>
    </g>
    <g id="Groupe_4" data-name="Groupe 4">
      <g id="Groupe_3" data-name="Groupe 3">
        <path id="Tracé_2" data-name="Tracé 2" d="M445.607,95.47a11.4,11.4,0,0,0-16.12,16.12,204.472,204.472,0,0,1,0,288.823,11.4,11.4,0,0,0,16.12,16.119,227.268,227.268,0,0,0,0-321.062Z" fill="#fff"/>
      </g>
    </g>
    <g id="Groupe_6" data-name="Groupe 6">
      <g id="Groupe_5" data-name="Groupe 5">
        <path id="Tracé_3" data-name="Tracé 3" d="M383.011,158.067a11.4,11.4,0,1,0-16.12,16.119,115.852,115.852,0,0,1,0,163.632,11.4,11.4,0,0,0,16.12,16.12,138.646,138.646,0,0,0,0-195.871Z" fill="#fff"/>
      </g>
    </g>
  </g>
</svg>
